<?xml version="1.0" encoding="UTF-8"?><svg id="Layer_1" xmlns="http://www.w3.org/2000/svg" viewBox="0 0 373.16 259.83"><defs><style>.cls-1,.cls-2{fill:#284c6f;}.cls-2{fill-rule:evenodd;}</style></defs><path class="cls-2" d="m29.42,259.83l-7.72-3.07L68.75,39.88,17.58,124.47h20.75v10.89H1.62l-1.62-2.87L80.15,0l7.72,3.07-47.06,216.88,51.17-84.59h-20.75v-10.89h36.71l1.62,2.87c-26.72,44.16-53.43,88.33-80.15,132.49h0Z"/><path class="cls-1" d="m244.24,178.5c.18-.61.49-1.12.93-1.51.43-.39,1.03-.59,1.8-.59.51,0,.95.11,1.32.33.38.22.68.52.9.89.22.37.35.79.38,1.25h1.81c-.03-.76-.24-1.44-.61-2.05-.37-.6-.88-1.07-1.53-1.42-.65-.35-1.4-.53-2.27-.53-1.1,0-2.01.25-2.74.76s-1.27,1.18-1.63,2.01c-.36.83-.54,1.75-.54,2.74v.42c0,.99.18,1.9.54,2.74.35.83.89,1.5,1.62,2.01.73.51,1.64.76,2.75.76.79,0,1.51-.17,2.16-.52.65-.34,1.18-.79,1.59-1.35.41-.56.63-1.17.66-1.82h-1.81c-.03.41-.17.78-.41,1.11-.25.33-.56.58-.94.77s-.8.28-1.25.28c-.77,0-1.38-.2-1.81-.59-.44-.39-.75-.89-.93-1.5-.17-.61-.26-1.24-.26-1.89v-.42c0-.65.09-1.27.27-1.88Z"/><rect class="cls-1" x="226.56" y="170.45" width="1.9" height="15.65"/><path class="cls-1" d="m257.77,184.66c-.17.03-.34.04-.49.04-.21,0-.41-.03-.59-.09-.19-.07-.34-.19-.45-.38-.11-.19-.17-.48-.17-.86v-6.86h2.06v-1.43h-2.06v-2.69h-1.91v2.69h-2.01v1.43h2.01v6.85c0,.73.12,1.32.35,1.75.23.43.54.74.93.92.39.19.81.28,1.27.28.34,0,.63-.02.87-.07.24-.04.44-.09.59-.14v-1.51c-.1.02-.23.04-.4.07Z"/><path class="cls-1" d="m238.41,175.58c-.67-.47-1.54-.71-2.6-.71-.82,0-1.6.22-2.34.67-.73.45-1.33,1.09-1.79,1.94s-.69,1.87-.69,3.06v.44c0,1.03.21,1.95.63,2.75s1.01,1.43,1.76,1.89c.76.46,1.65.69,2.68.69,1.09,0,1.97-.22,2.63-.66.67-.44,1.18-.93,1.53-1.47l-1.16-.9c-.34.45-.74.82-1.21,1.09-.46.27-1.02.41-1.69.41s-1.26-.17-1.75-.52c-.49-.34-.87-.8-1.12-1.37-.24-.54-.36-1.13-.38-1.78h7.45v-.85c0-1.03-.16-1.94-.47-2.75-.32-.81-.81-1.46-1.48-1.93Zm.04,4h-5.48c.06-.47.15-.92.3-1.29.25-.61.59-1.08,1.03-1.41.44-.32.94-.48,1.51-.48.65,0,1.16.15,1.53.45.37.31.65.69.82,1.16.17.46.26.94.29,1.43v.14Z"/><path class="cls-1" d="m181.37,175.61c-.75-.49-1.65-.74-2.69-.74s-1.91.25-2.66.74c-.75.49-1.32,1.16-1.73,2-.41.85-.61,1.8-.61,2.87v.23c0,1.06.2,2.01.61,2.86s.99,1.51,1.74,2c.75.49,1.64.74,2.67.74s1.93-.25,2.68-.74c.75-.49,1.32-1.15,1.73-2s.61-1.8.61-2.86v-.23c0-1.07-.2-2.02-.61-2.87-.41-.84-.99-1.51-1.74-2Zm.44,5.1c0,.73-.12,1.4-.35,2.02-.23.62-.57,1.12-1.03,1.49-.46.37-1.04.56-1.73.56s-1.28-.19-1.74-.56c-.46-.37-.8-.87-1.03-1.49-.23-.62-.35-1.29-.35-2.02v-.23c0-.73.11-1.4.34-2.02s.57-1.12,1.04-1.49c.46-.38,1.03-.57,1.72-.57s1.28.19,1.74.57c.47.37.81.87,1.04,1.49.23.62.35,1.29.35,2.02v.23Z"/><path class="cls-1" d="m190.37,184.66c-.17.03-.34.04-.5.04-.21,0-.4-.03-.59-.09-.18-.07-.33-.19-.45-.38-.11-.19-.17-.48-.17-.86v-6.86h2.06v-1.43h-2.06v-2.69h-1.91v2.69h-2v1.43h2v6.85c0,.73.12,1.32.35,1.75s.54.74.93.92c.39.19.81.28,1.27.28.34,0,.63-.02.87-.07.25-.04.44-.09.59-.14v-1.51c-.09.02-.22.04-.39.07Z"/><polygon class="cls-1" points="174.28 172.86 174.28 171.26 169.52 171.26 167.56 171.26 162.81 171.26 162.81 172.86 167.56 172.86 167.56 186.1 169.52 186.1 169.52 172.86 174.28 172.86"/><rect class="cls-1" x="204.44" y="170.45" width="1.9" height="15.65"/><path class="cls-1" d="m201.32,183.7v-5.14c0-.82-.18-1.5-.53-2.05-.35-.55-.83-.96-1.45-1.23-.62-.27-1.33-.41-2.13-.41-.89,0-1.66.16-2.32.49-.65.32-1.16.73-1.52,1.23s-.54,1.01-.54,1.54h1.9c0-.31.1-.6.3-.86.2-.27.48-.48.83-.65.36-.16.77-.24,1.24-.24.76,0,1.34.2,1.73.59.39.39.58.91.58,1.57v.88h-1.85c-1.51,0-2.72.31-3.62.92-.9.61-1.35,1.52-1.35,2.71,0,.6.16,1.15.47,1.65.31.49.74.89,1.3,1.18.56.29,1.21.43,1.96.43.6,0,1.14-.1,1.62-.31.48-.21.89-.47,1.24-.79.11-.09.19-.19.29-.29.01.11,0,.2.02.31.06.37.14.66.23.87h1.99v-.16c-.13-.3-.23-.66-.29-1.07-.07-.41-.1-.8-.1-1.17Zm-3.19.61c-.44.25-.95.37-1.53.37-.69,0-1.21-.18-1.56-.55-.36-.37-.54-.82-.54-1.35,0-.68.29-1.19.88-1.53.58-.34,1.41-.51,2.48-.51h1.55v2.25c-.06.13-.13.27-.23.41-.26.36-.61.66-1.05.91Z"/><polygon class="cls-1" points="216.8 179.23 223.21 179.23 223.21 177.64 216.8 177.64 216.8 172.86 224.15 172.86 224.15 171.26 216.8 171.26 216.42 171.26 214.83 171.26 214.83 186.1 216.42 186.1 216.8 186.1 224.25 186.1 224.25 184.51 216.8 184.51 216.8 179.23"/><path class="cls-1" d="m296.66,178.87c-.72-.41-1.64-.78-2.77-1.09-.81-.23-1.46-.48-1.97-.74-.51-.25-.89-.54-1.12-.87-.24-.32-.36-.69-.36-1.1,0-.47.11-.88.32-1.24.22-.36.56-.64,1.01-.85.45-.21,1.03-.32,1.72-.32.74,0,1.35.12,1.83.37.48.25.84.59,1.08,1.03.23.43.35.93.35,1.48h1.99c0-.77-.21-1.5-.62-2.18-.41-.69-1-1.24-1.78-1.66-.78-.43-1.73-.64-2.85-.64-1.01,0-1.9.17-2.65.52-.76.35-1.35.83-1.76,1.44-.42.61-.63,1.3-.63,2.08,0,.57.11,1.09.34,1.54.22.45.54.84.97,1.19.42.35.92.65,1.51.92s1.25.51,1.98.72c.94.27,1.66.54,2.17.8.51.27.87.56,1.06.89.2.33.3.72.3,1.19s-.12.91-.37,1.26c-.25.35-.61.63-1.08.82-.47.19-1.05.29-1.74.29-.48,0-.94-.06-1.37-.17-.43-.11-.82-.29-1.16-.52-.34-.24-.61-.54-.8-.91-.2-.37-.3-.81-.3-1.32h-1.98c0,.74.16,1.39.49,1.96.32.56.75,1.03,1.29,1.41.54.38,1.14.66,1.8.85.67.19,1.34.29,2.03.29,1.05,0,1.96-.16,2.73-.49.77-.33,1.37-.79,1.8-1.39.43-.59.65-1.29.65-2.1s-.17-1.43-.52-1.99c-.34-.57-.87-1.06-1.59-1.47Z"/><path class="cls-1" d="m337.44,171.06c-.37,0-.64.11-.83.32-.19.21-.28.46-.28.76,0,.29.09.54.28.75s.46.31.83.31.65-.1.84-.31c.19-.21.29-.46.29-.75s-.1-.55-.29-.76c-.19-.21-.47-.32-.84-.32Z"/><path class="cls-1" d="m348.59,175.61c-.75-.49-1.65-.74-2.69-.74s-1.91.25-2.66.74-1.32,1.16-1.73,2c-.41.85-.62,1.8-.62,2.87v.23c0,1.06.21,2.01.62,2.86.41.85.98,1.51,1.73,2,.75.49,1.65.74,2.68.74s1.93-.25,2.68-.74c.75-.49,1.32-1.15,1.73-2,.41-.85.61-1.8.61-2.86v-.23c0-1.07-.2-2.02-.61-2.87-.41-.84-.99-1.51-1.74-2Zm.44,5.1c0,.73-.12,1.4-.35,2.02-.23.62-.57,1.12-1.03,1.49-.46.37-1.04.56-1.73.56s-1.28-.19-1.74-.56c-.46-.37-.8-.87-1.03-1.49-.23-.62-.35-1.29-.35-2.02v-.23c0-.73.11-1.4.34-2.02.23-.62.57-1.12,1.04-1.49.46-.38,1.03-.57,1.72-.57s1.28.19,1.74.57c.47.37.81.87,1.04,1.49.23.62.35,1.29.35,2.02v.23Z"/><rect class="cls-1" x="336.47" y="175.08" width="1.91" height="11.02"/><path class="cls-1" d="m360.33,175.27c-.53-.27-1.15-.4-1.88-.4-.89,0-1.67.23-2.34.69-.36.25-.67.54-.95.88l-.06-1.36h-1.8v11.02h1.91v-7.88c.12-.24.25-.46.41-.66.28-.35.61-.62.99-.81.38-.2.81-.3,1.28-.3s.87.08,1.2.24c.33.16.57.42.74.77.17.35.25.82.25,1.4v7.24h1.9v-7.22c0-.97-.14-1.74-.43-2.33-.29-.58-.69-1.01-1.22-1.28Z"/><path class="cls-1" d="m264.82,174.87c-.79,0-1.44.22-1.95.67-.26.23-.48.49-.66.79l-.04-1.25h-1.85v11.02h1.9v-7.76c.04-.11.08-.22.13-.32.21-.42.52-.75.92-.99.39-.23.88-.35,1.46-.35.18,0,.34,0,.48.01.13.01.28.04.45.07v-1.75c-.07-.03-.19-.06-.37-.09-.18-.03-.34-.05-.47-.05Z"/><path class="cls-1" d="m333.76,184.66c-.17.03-.34.04-.49.04-.21,0-.41-.03-.59-.09-.19-.07-.34-.19-.45-.38-.11-.19-.17-.48-.17-.86v-6.86h2.06v-1.43h-2.06v-2.69h-1.91v2.69h-2.01v1.43h2.01v6.85c0,.73.12,1.32.35,1.75.23.43.54.74.93.92.39.19.81.28,1.27.28.34,0,.63-.02.87-.07.24-.04.44-.09.59-.14v-1.51c-.1.02-.23.04-.4.07Z"/><path class="cls-1" d="m372.73,181.53c-.29-.41-.72-.76-1.31-1.05-.58-.29-1.32-.53-2.23-.74-.69-.15-1.22-.31-1.58-.46-.37-.16-.62-.34-.75-.54-.14-.2-.21-.44-.21-.71s.07-.53.22-.78.38-.45.71-.61c.32-.16.74-.24,1.25-.24.75,0,1.32.2,1.71.61.4.41.6.84.6,1.3h1.9c0-.63-.17-1.21-.5-1.73-.33-.52-.81-.93-1.44-1.24-.63-.31-1.38-.47-2.27-.47-.82,0-1.54.15-2.15.45-.61.29-1.09.68-1.43,1.17-.33.49-.5,1.02-.5,1.6s.16,1.11.48,1.52c.33.41.79.74,1.38,1.01.59.26,1.3.47,2.11.64.73.15,1.27.33,1.63.52.36.19.6.41.72.64s.18.49.18.76c0,.31-.09.58-.27.82s-.44.43-.79.57c-.35.14-.79.21-1.3.21-.39,0-.78-.06-1.17-.19-.39-.13-.72-.35-.99-.65-.27-.31-.42-.72-.45-1.23h-1.91c0,.61.17,1.19.52,1.74.35.55.86.99,1.53,1.34.67.35,1.5.52,2.47.52.86,0,1.61-.14,2.25-.41.64-.28,1.14-.67,1.49-1.16s.53-1.06.53-1.69c0-.6-.14-1.11-.43-1.52Z"/><path class="cls-1" d="m274.16,178.5c.18-.61.49-1.12.92-1.51.44-.39,1.04-.59,1.81-.59.51,0,.95.11,1.32.33.38.22.68.52.9.89.22.37.35.79.38,1.25h1.81c-.04-.76-.24-1.44-.61-2.05-.37-.6-.88-1.07-1.53-1.42-.65-.35-1.4-.53-2.27-.53-1.1,0-2.01.25-2.74.76-.73.51-1.27,1.18-1.63,2.01-.36.83-.54,1.75-.54,2.74v.42c0,.99.18,1.9.53,2.74.36.83.9,1.5,1.63,2.01.73.51,1.64.76,2.75.76.78,0,1.5-.17,2.15-.52.65-.34,1.18-.79,1.59-1.35s.63-1.17.67-1.82h-1.81c-.03.41-.17.78-.42,1.11-.24.33-.55.58-.93.77-.39.19-.8.28-1.25.28-.77,0-1.38-.2-1.82-.59-.44-.39-.75-.89-.92-1.5-.18-.61-.27-1.24-.27-1.89v-.42c0-.65.09-1.27.28-1.88Z"/><path class="cls-1" d="m268.52,171.06c-.37,0-.64.11-.83.32-.19.21-.28.46-.28.76s.09.54.28.75c.19.21.46.31.83.31s.65-.1.84-.31.29-.46.29-.75-.1-.55-.29-.76c-.19-.21-.47-.32-.84-.32Z"/><path class="cls-1" d="m324.72,183.09c-.21.48-.52.88-.96,1.16-.47.31-1.1.47-1.91.47-.34,0-.66-.07-.97-.21-.31-.14-.56-.39-.75-.75-.19-.37-.29-.88-.29-1.55v-7.13h-1.91v7.11c0,1.47.33,2.52,1,3.16.67.64,1.54.96,2.62.96s1.91-.22,2.54-.66c.26-.18.48-.4.68-.64l.04,1.09h1.81v-11.02h-1.9v8.01Z"/><rect class="cls-1" x="267.55" y="175.08" width="1.91" height="11.02"/><path class="cls-1" d="m308.18,175.61c-.75-.49-1.65-.74-2.69-.74s-1.91.25-2.66.74c-.75.49-1.32,1.16-1.73,2-.41.85-.61,1.8-.61,2.87v.23c0,1.06.2,2.01.61,2.86s.99,1.51,1.74,2c.75.49,1.64.74,2.67.74s1.93-.25,2.68-.74c.75-.49,1.33-1.15,1.73-2,.41-.85.61-1.8.61-2.86v-.23c0-1.07-.2-2.02-.61-2.87-.4-.84-.98-1.51-1.74-2Zm.44,5.1c0,.73-.11,1.4-.34,2.02-.23.62-.58,1.12-1.04,1.49-.46.37-1.04.56-1.73.56s-1.28-.19-1.73-.56c-.46-.37-.81-.87-1.04-1.49-.23-.62-.34-1.29-.34-2.02v-.23c0-.73.11-1.4.34-2.02s.57-1.12,1.03-1.49c.46-.38,1.03-.57,1.72-.57s1.28.19,1.75.57c.46.37.81.87,1.04,1.49.23.62.34,1.29.34,2.02v.23Z"/><rect class="cls-1" x="313.06" y="170.45" width="1.9" height="15.65"/><polygon class="cls-1" points="186.23 74.84 162.81 74.84 162.81 87.06 186.23 87.06 186.23 151.81 201.35 151.81 201.35 87.06 225.03 87.06 225.03 74.84 201.35 74.84 186.23 74.84"/><path class="cls-1" d="m347.77,120.7c-1.9-3.08-4.74-5.75-8.51-8.01-3.77-2.25-8.49-4.23-14.16-5.92-3.42-1.02-6.28-2.08-8.59-3.19-2.31-1.11-4.06-2.34-5.24-3.68-1.18-1.34-1.77-2.89-1.77-4.65s.46-3.35,1.38-4.78c.91-1.43,2.32-2.56,4.23-3.39,1.9-.83,4.28-1.24,7.13-1.24,3,0,5.48.49,7.43,1.48,1.95.99,3.41,2.35,4.36,4.1.95,1.74,1.43,3.76,1.43,6.05h15.12c0-4.55-1.15-8.6-3.44-12.16s-5.54-6.37-9.75-8.43c-4.21-2.06-9.19-3.09-14.94-3.09s-10.35.9-14.56,2.69c-4.21,1.8-7.52,4.3-9.91,7.51-2.4,3.21-3.6,6.94-3.6,11.21,0,3.27.66,6.16,1.99,8.67,1.32,2.5,3.15,4.69,5.49,6.58,2.35,1.89,5.07,3.53,8.17,4.94,3.1,1.41,6.43,2.68,9.99,3.81,4.27,1.3,7.51,2.55,9.73,3.75,2.22,1.2,3.73,2.49,4.52,3.86.79,1.37,1.19,3.01,1.19,4.91,0,1.77-.46,3.35-1.38,4.74-.91,1.39-2.3,2.48-4.15,3.27-1.85.79-4.22,1.19-7.11,1.19-2.29,0-4.38-.24-6.29-.71-1.9-.47-3.56-1.23-4.97-2.27-1.41-1.04-2.49-2.39-3.25-4.05-.75-1.65-1.13-3.68-1.13-6.08h-15.18c0,4.3.88,8.02,2.65,11.16,1.76,3.13,4.13,5.73,7.11,7.79,2.97,2.07,6.29,3.6,9.94,4.6,3.65,1.01,7.35,1.51,11.12,1.51,5.64,0,10.54-.85,14.7-2.54,4.16-1.69,7.38-4.13,9.67-7.32,2.29-3.19,3.44-6.98,3.44-11.39s-.95-7.83-2.86-10.92Z"/><polygon class="cls-1" points="249.56 118.14 280.32 118.14 280.32 106.24 249.56 106.24 249.56 87.06 285.45 87.06 285.45 74.84 249.56 74.84 245.01 74.84 234.39 74.84 234.39 151.81 245.01 151.81 249.56 151.81 285.66 151.81 285.66 139.65 249.56 139.65 249.56 118.14"/></svg>