<svg xmlns="http://www.w3.org/2000/svg" id="Layer_1" viewBox="0 0 425.17 245.98"><defs><style>.cls-1{fill:#ba2f21;}.cls-1,.cls-2{fill-rule:evenodd;}.cls-2{fill:#fff;}</style></defs><path class="cls-2" d="m182.25,176.46c0-1.6-.48-2.08-2.12-2.08h-3.07c-1.59,0-2.11.48-2.11,2.08v4.71h7.3v-4.71Zm7.26,20.95h-6.51c-.44,0-.76-.36-.76-.8v-8.86h-7.3v8.86c0,.44-.32.8-.76.8h-6.54c-.44,0-.8-.36-.8-.8v-20.15c0-7.66,5.03-9.06,10.21-9.06h3.07c5.19,0,10.21,1.35,10.21,9.06v20.15c0,.44-.4.8-.84.8Zm21.03-20.03c0-2.32-1.6-3.23-4.27-3.23-.28,0-2.59.04-2.83.04v6.78c.2.04,2.59.04,2.83.04,2.8,0,4.27-1.08,4.27-3.31v-.32Zm-4.27,10.37c-.88,0-1.75-.08-2.83-.12v8.97c0,.44-.36.8-.8.8h-6.39c-.44,0-.84-.28-.84-.72v-26.17c0-1.92.64-2.36,2.31-2.63,2-.32,5.58-.52,8.42-.52,5.95,0,12.45,2.07,12.45,10.02v.32c0,7.86-6.58,10.05-12.33,10.05Zm29.66-10.37c0-2.32-1.6-3.23-4.27-3.23-.28,0-2.59.04-2.83.04v6.78c.2.04,2.59.04,2.83.04,2.79,0,4.27-1.08,4.27-3.31v-.32Zm-4.27,10.37c-.88,0-1.75-.08-2.83-.12v8.97c0,.44-.36.8-.8.8h-6.39c-.44,0-.84-.28-.84-.72v-26.17c0-1.92.64-2.36,2.31-2.63,2-.32,5.58-.52,8.42-.52,5.95,0,12.45,2.07,12.45,10.02v.32c0,7.86-6.58,10.05-12.33,10.05Zm31-10.73c0-1.88-1.32-2.83-3.99-2.83-.28,0-2.83.08-3.07.08v6.34c.2.04,2.67.04,2.91.04,3.07,0,4.15-1.08,4.15-2.95v-.68Zm8.42,20.39h-7.34c-.44,0-.6-.4-.8-.8l-4.99-9.58-.28-.16c-.4,0-1.67-.04-2.07-.04v9.77c0,.44-.36.8-.8.8h-6.47c-.44,0-.84-.36-.84-.8v-26.09c0-1.92.64-2.36,2.31-2.63,1.6-.24,5.59-.52,8.42-.52,7.42,0,12.49,2.35,12.49,9.66v.64c0,4.27-2.35,6.78-4.87,7.86l5.79,10.85c.08.16.12.32.12.44,0,.36-.28.6-.68.6Zm19.3-16.88c0-4.27-1.23-6.02-4.03-6.02s-4.03,1.75-4.03,6.02v4.11c0,4.27,1.24,5.99,4.03,5.99s4.03-1.71,4.03-5.99v-4.11Zm-4.03,17.24c-6.63,0-12.25-3.39-12.25-13.13v-4.11c0-9.73,5.62-13.17,12.25-13.17s12.25,3.43,12.25,13.17v4.11c0,9.74-5.62,13.13-12.25,13.13Zm40.53-29.2l-5.35,24.42c-.87,3.95-3.83,4.79-7.66,4.79s-6.78-.84-7.66-4.79l-5.35-24.42c0-.08-.04-.12-.04-.2,0-.36.28-.6.68-.6h6.9c.44,0,.76.36.84.76l4.19,22.07c.08.36.12.56.44.56s.4-.2.48-.56l4.19-22.07c.08-.4.36-.76.8-.76h6.94c.4,0,.64.24.64.6,0,.04-.04.12-.04.2Zm20.67,28.73c-1.52.2-3.99.48-7.86.48-5.11,0-10.21-1.2-10.21-8.94v-12.53c0-7.7,5.11-8.94,10.21-8.94,3.87,0,6.34.28,7.86.48.52.08.79.32.79.8v4.87c0,.44-.36.8-.79.8h-8.06c-1.44,0-1.92.44-1.92,2v2.91h9.82c.43,0,.8.36.8.8v4.71c0,.44-.36.8-.8.8h-9.82v3.31c0,1.56.48,2,1.92,2h8.06c.44,0,.79.36.79.8v4.87c0,.48-.28.72-.79.8Zm20.7-16.92c0-4.79-1.6-6.06-4.79-6.06-.48,0-2,.04-2.27.04v16.48c.28.04,1.76.04,2.27.04,3.19,0,4.79-1.28,4.79-6.1v-4.39Zm-4.79,17.4c-3.79,0-7.07-.32-9.14-.67-.88-.16-1.28-.48-1.28-1.56v-25.93c0-1.08.4-1.4,1.28-1.56,2.07-.36,5.31-.68,9.14-.68,7.9,0,12.97,4.03,12.97,13v4.39c0,8.98-5.03,13-12.97,13Zm-179.35,47.49c-1.04.36-3.07.72-5.58.72-7.34,0-12.29-3.99-12.29-13.13v-4.11c0-9.14,4.95-13.13,12.29-13.13,2.51,0,4.55.36,5.58.72.64.2.88.32.88.88v5.11c0,.52-.24.76-.72.76h-.12c-1.63-.16-3.31-.36-5.59-.36-2.15,0-4.11.96-4.11,6.03v4.11c0,5.03,1.92,6.02,4.11,6.02s3.95-.2,5.59-.36h.12c.48,0,.72.24.72.76v5.11c0,.52-.24.68-.88.88Zm19.87-16.52c0-4.27-1.24-6.03-4.03-6.03s-4.03,1.76-4.03,6.03v4.11c0,4.27,1.24,5.99,4.03,5.99s4.03-1.72,4.03-5.99v-4.11Zm-4.03,17.24c-6.62,0-12.25-3.39-12.25-13.13v-4.11c0-9.73,5.63-13.17,12.25-13.17s12.25,3.43,12.25,13.17v4.11c0,9.74-5.63,13.13-12.25,13.13Zm38.74-.36h-5.35c-.72,0-1.23-.32-1.67-1.08l-7.86-13.37c-.16-.28-.28-.32-.4-.32s-.2.08-.2.36v13.61c0,.44-.36.8-.8.8h-5.99c-.44,0-.84-.36-.84-.8v-27.37c0-.8.68-1.48,1.48-1.48h5.26c.76,0,1.2.44,1.6,1.16l8.1,13.77c.16.28.24.36.36.36s.2-.04.2-.36v-14.13c0-.44.36-.8.8-.8h5.98c.44,0,.8.36.8.8v27.37c0,.8-.68,1.48-1.48,1.48Zm25.43-23.02h-5.94v22.22c0,.44-.36.8-.8.8h-6.5c-.44,0-.8-.36-.8-.8v-22.22h-6.06c-.44,0-.8-.32-.8-.76v-5.11c0-.44.36-.76.8-.76h20.11c.44,0,.84.32.84.76v5.11c0,.44-.4.76-.84.76Zm19.55,2.63c0-1.88-1.31-2.83-3.98-2.83-.28,0-2.84.08-3.08.08v6.34c.2.04,2.67.04,2.91.04,3.07,0,4.15-1.08,4.15-2.95v-.68Zm8.42,20.39h-7.34c-.44,0-.6-.4-.8-.8l-4.99-9.58-.28-.16c-.4,0-1.67-.04-2.08-.04v9.77c0,.44-.36.8-.8.8h-6.47c-.43,0-.84-.36-.84-.8v-26.09c0-1.92.64-2.35,2.31-2.64,1.6-.24,5.59-.52,8.42-.52,7.42,0,12.49,2.35,12.49,9.66v.64c0,4.27-2.36,6.78-4.87,7.86l5.79,10.86c.08.16.12.32.12.44,0,.36-.28.6-.68.6Zm19.95-20.95c0-1.59-.48-2.07-2.11-2.07h-3.07c-1.6,0-2.12.48-2.12,2.07v4.71h7.3v-4.71Zm7.26,20.95h-6.5c-.44,0-.76-.36-.76-.8v-8.86h-7.3v8.86c0,.44-.32.8-.76.8h-6.55c-.44,0-.8-.36-.8-.8v-20.15c0-7.66,5.03-9.06,10.22-9.06h3.07c5.19,0,10.22,1.36,10.22,9.06v20.15c0,.44-.4.8-.84.8Zm21.33-.36c-1.04.36-3.07.72-5.59.72-7.34,0-12.29-3.99-12.29-13.13v-4.11c0-9.14,4.95-13.13,12.29-13.13,2.52,0,4.55.36,5.59.72.64.2.88.32.88.88v5.11c0,.52-.24.76-.72.76h-.12c-1.64-.16-3.31-.36-5.59-.36-2.16,0-4.11.96-4.11,6.03v4.11c0,5.03,1.91,6.02,4.11,6.02s3.95-.2,5.59-.36h.12c.48,0,.72.24.72.76v5.11c0,.52-.24.68-.88.88Zm24.26-22.66h-5.94v22.22c0,.44-.36.8-.8.8h-6.5c-.44,0-.8-.36-.8-.8v-22.22h-6.07c-.43,0-.79-.32-.79-.76v-5.11c0-.44.36-.76.79-.76h20.11c.44,0,.84.32.84.76v5.11c0,.44-.4.76-.84.76Zm18.63,6.14c0-4.27-1.24-6.03-4.03-6.03s-4.03,1.76-4.03,6.03v4.11c0,4.27,1.24,5.99,4.03,5.99s4.03-1.72,4.03-5.99v-4.11Zm-4.03,17.24c-6.62,0-12.25-3.39-12.25-13.13v-4.11c0-9.73,5.63-13.17,12.25-13.17s12.25,3.43,12.25,13.17v4.11c0,9.74-5.63,13.13-12.25,13.13Zm31.88-20.75c0-1.88-1.32-2.83-3.99-2.83-.28,0-2.84.08-3.08.08v6.34c.2.04,2.67.04,2.91.04,3.08,0,4.15-1.08,4.15-2.95v-.68Zm8.42,20.39h-7.34c-.44,0-.6-.4-.8-.8l-4.99-9.58-.28-.16c-.4,0-1.67-.04-2.08-.04v9.77c0,.44-.36.8-.8.8h-6.46c-.44,0-.84-.36-.84-.8v-26.09c0-1.92.64-2.35,2.32-2.64,1.59-.24,5.58-.52,8.42-.52,7.42,0,12.49,2.35,12.49,9.66v.64c0,4.27-2.35,6.78-4.87,7.86l5.79,10.86c.08.16.12.32.12.44,0,.36-.28.6-.68.6Zm-30.63-141.72v15.93c0,1.02-.83,1.86-1.83,1.86h-.42c-1.02,0-1.86-.84-1.86-1.86v-37.33c0-1.01.84-1.82,1.86-1.82h.42c1,0,1.83.81,1.83,1.82v16.39h36v-20.47c0-1.03-.82-1.86-1.85-1.86h-73c-1.01,0-1.83.82-1.83,1.86v45.52c0,1.04.82,1.85,1.83,1.85h73c1.03,0,1.85-.81,1.85-1.85v-20.04h-36Zm-89.52,8.76h-44c-1.01,0-1.84-.83-1.84-1.84v-.46c0-1.03.83-1.86,1.84-1.86h44v-14.04h-44c-1.01,0-1.84-.84-1.84-1.87v-.44c0-1.03.83-1.85,1.84-1.85h44v-13.73h-72.22c-1.03,0-1.85.82-1.85,1.86v45.52c0,1.04.82,1.85,1.85,1.85h72.22v-13.13Zm43.2,13.1h-37.57v-49.19h37.57v49.19Z"></path><path class="cls-1" d="m123.61,33.28V1.85c0-1.04-.82-1.85-1.85-1.85h-40.51c-1.02,0-1.85.81-1.85,1.85v31.43h44.21Zm-44.21,4.07v158.14c0,1.02.84,1.84,1.85,1.84h40.51c1.02,0,1.85-.82,1.85-1.84V37.36h-44.21Zm91.61,66.54v15.93c0,1.02-.82,1.86-1.83,1.86h-.42c-1.03,0-1.85-.84-1.85-1.86v-37.33c0-1.01.82-1.82,1.85-1.82h.42c1.01,0,1.83.81,1.83,1.82v16.39h36.01v-20.47c0-1.03-.83-1.86-1.85-1.86h-72.99c-1.03,0-1.84.82-1.84,1.86v45.52c0,1.04.81,1.85,1.84,1.85h72.99c1.03,0,1.85-.81,1.85-1.85v-20.04h-36.01Zm-118.23-27.32l-.48,14.77-12.51-14.77H1.81c-1.01,0-1.81.83-1.81,1.82v45.59c0,1.01.8,1.82,1.81,1.82h19.08l.49-14.98,12.68,14.98h38.77v-49.23h-20.05Z"></path></svg>